0
SECTION
2
HEADER
9
$INSUNITS
70
4
9
$ACADVER
1
AC1014
9
$HANDSEED
5
FFFF
0
ENDSEC
0
SECTION
2
TABLES
0
TABLE
2
VPORT
5
8
100
AcDbSymbolTable
0
ENDTAB
0
TABLE
2
LTYPE
5
5
100
AcDbSymbolTable
0
LTYPE
5
14
100
AcDbSymbolTableRecord
100
AcDbLinetypeTableRecord
2
BYBLOCK
70
0
0
LTYPE
5
15
100
AcDbSymbolTableRecord
100
AcDbLinetypeTableRecord
2
BYLAYER
70
0
0
ENDTAB
0
TABLE
2
LAYER
5
2
100
AcDbSymbolTable
70
2
0
LAYER
5
50
100
AcDbSymbolTableRecord
100
AcDbLayerTableRecord
2
0
70
0
6
CONTINUOUS
0
ENDTAB
0
TABLE
2
STYLE
5
3
100
AcDbSymbolTable
70
1
0
STYLE
5
11
100
AcDbSymbolTableRecord
100
AcDbTextStyleTableRecord
2
STANDARD
70
0
0
ENDTAB
0
TABLE
2
VIEW
5
6
100
AcDbSymbolTable
70
0
0
ENDTAB
0
TABLE
2
UCS
5
7
100
AcDbSymbolTable
70
0
0
ENDTAB
0
TABLE
2
APPID
5
9
100
AcDbSymbolTable
70
2
0
APPID
5
12
100
AcDbSymbolTableRecord
100
AcDbRegAppTableRecord
2
ACAD
70
0
0
ENDTAB
0
TABLE
2
DIMSTYLE
5
A
100
AcDbSymbolTable
70
1
0
ENDTAB
0
TABLE
2
BLOCK_RECORD
5
1
100
AcDbSymbolTable
70
1
0
BLOCK_RECORD
5
1F
100
AcDbSymbolTableRecord
100
AcDbBlockTableRecord
2
*MODEL_SPACE
0
BLOCK_RECORD
5
1B
100
AcDbSymbolTableRecord
100
AcDbBlockTableRecord
2
*PAPER_SPACE
0
ENDTAB
0
ENDSEC
0
SECTION
2
BLOCKS
0
BLOCK
5
20
100
AcDbEntity
100
AcDbBlockBegin
2
*MODEL_SPACE
0
ENDBLK
5
21
100
AcDbEntity
100
AcDbBlockEnd
0
BLOCK
5
1C
100
AcDbEntity
100
AcDbBlockBegin
2
*PAPER_SPACE
0
ENDBLK
5
1D
100
AcDbEntity
100
AcDbBlockEnd
0
ENDSEC
0
SECTION
2
ENTITIES
0
LINE
5
100
100
AcDbEntity
8
0
100
AcDbLine
10
203.46202248619471
20
295.00000000000006
30
0
11
55.462022486194833
21
295
31
-8.8817841970012523e-15
0
LINE
5
101
100
AcDbEntity
8
0
100
AcDbLine
10
55.462022486194869
20
295
30
3.5527136788005009e-14
11
55.462022486194869
21
275
31
3.5527136788005009e-14
0
LINE
5
102
100
AcDbEntity
8
0
100
AcDbLine
10
-8.537977513805135
20
275
30
3.9968028886505635e-14
11
-8.5379775138051581
21
295
31
3.5527136788005009e-14
0
LINE
5
103
100
AcDbEntity
8
0
100
AcDbLine
10
55.462022486194869
20
275
30
3.5527136788005009e-14
11
-8.537977513805135
21
275
31
3.9968028886505635e-14
0
LINE
5
104
100
AcDbEntity
8
0
100
AcDbLine
10
18.399522486194861
20
100
30
-1.7763568394002505e-14
11
18.39952248619479
21
187.74999999999989
31
-7.8886090522101181e-30
0
ARC
5
105
100
AcDbEntity
8
0
100
AcDbCircle
10
18.399522486194808
20
192.74999999999991
30
3.5527136788005009e-14
40
5.0000000000001066
210
4.7074870285912127e-46
220
-2.9267618728690245e-60
230
1
100
AcDbArc
50
89.999999999999616
51
269.99999999999983
0
LINE
5
106
100
AcDbEntity
8
0
100
AcDbLine
10
18.39952248619484
20
197.75000000000003
30
3.5527136788005009e-14
11
28.524522486194961
21
197.75
31
0
0
ARC
5
107
100
AcDbEntity
8
0
100
AcDbCircle
10
28.524522486194932
20
192.75
30
0
40
5.0000000000001066
210
3.5032461608120302e-45
220
-3.1115076389304935e-59
230
1
100
AcDbArc
50
-90.000000000000512
51
89.999999999999673
0
LINE
5
108
100
AcDbEntity
8
0
100
AcDbLine
10
28.52452248619489
20
187.74999999999989
30
0
11
28.524522486194893
21
100
31
3.5527136788005009e-14
0
LINE
5
109
100
AcDbEntity
8
0
100
AcDbLine
10
28.524522486194893
20
100
30
3.5527136788005009e-14
11
323.46202248619471
21
100
31
0
0
LINE
5
110
100
AcDbEntity
8
0
100
AcDbLine
10
323.46202248619471
20
100
30
0
11
323.46202248619477
21
120.00000000000009
31
3.5527136788005003e-14
0
LINE
5
111
100
AcDbEntity
8
0
100
AcDbLine
10
323.46202248619477
20
120.00000000000009
30
3.5527136788005003e-14
11
203.46202248619471
21
295.00000000000006
31
0
0
LINE
5
112
100
AcDbEntity
8
0
100
AcDbLine
10
-8.5379775138051581
20
295
30
3.5527136788005009e-14
11
-156.537977513805
21
295
31
3.5527136788005009e-14
0
LINE
5
113
100
AcDbEntity
8
0
100
AcDbLine
10
-156.537977513805
20
295
30
3.5527136788005009e-14
11
-276.53797751380489
21
120
31
-8.8817841970012523e-15
0
LINE
5
114
100
AcDbEntity
8
0
100
AcDbLine
10
-276.53797751380489
20
120
30
-8.8817841970012523e-15
11
-276.537977513805
21
100
31
3.5527136788005009e-14
0
LINE
5
115
100
AcDbEntity
8
0
100
AcDbLine
10
-276.537977513805
20
100
30
3.5527136788005009e-14
11
18.399522486194861
21
100
31
-1.7763568394002505e-14
0
CIRCLE
5
116
100
AcDbEntity
8
0
100
AcDbCircle
10
-266.537977513805
20
110
30
0
40
3.3000000000000003
210
5.5511151231257827e-17
220
0
230
1
0
CIRCLE
5
117
100
AcDbEntity
8
0
100
AcDbCircle
10
313.46202248619477
20
110.00000000000009
30
-3.5527136788005009e-14
40
3.3000000000000003
210
5.5511151231257827e-17
220
0
230
1
0
LWPOLYLINE
5
118
100
AcDbEntity
8
0
100
AcDbPolyline
90
4
70
1
43
0.0
10
-152.06486746948488
20
107.10000000000008
10
-164.11340346464141
20
107.10000000000007
42
-0.99999999999999989
10
-164.11340346464141
20
112.90000000000019
10
-152.0648674694848
20
112.9000000000002
42
-0.99999999999999989
0
LWPOLYLINE
5
119
100
AcDbEntity
8
0
100
AcDbPolyline
90
4
70
1
43
0.0
10
211.03744843703129
20
227.10000000000022
10
198.98891244187467
20
227.10000000000014
42
-0.99999999999999989
10
198.98891244187467
20
232.90000000000015
10
211.03744843703137
20
232.90000000000006
42
-0.99999999999999989
0
LWPOLYLINE
5
120
100
AcDbEntity
8
0
100
AcDbPolyline
90
4
70
1
43
0.0
10
-152.06486746948482
20
227.10000000000022
10
-164.11340346464146
20
227.10000000000022
42
-0.99999999999999989
10
-164.11340346464146
20
232.9000000000002
10
-152.06486746948485
20
232.9000000000002
42
-0.99999999999999989
0
LWPOLYLINE
5
121
100
AcDbEntity
8
0
100
AcDbPolyline
90
4
70
1
43
0.0
10
198.98891244187465
20
112.90000000000018
10
211.037448437031
20
112.90000000000018
42
-0.99999999999999989
10
211.03744843703123
20
107.10000000000005
10
198.98891244187465
20
107.10000000000005
42
-0.99999999999999989
0
CIRCLE
5
122
100
AcDbEntity
8
0
100
AcDbCircle
10
123.46202248619485
20
110.00000000000011
30
3.5527136788005009e-14
40
2.8999999999999919
210
0
220
-0
230
1
0
CIRCLE
5
123
100
AcDbEntity
8
0
100
AcDbCircle
10
-76.537977513805089
20
110.00000000000016
30
0
40
2.8999999999999919
210
0
220
-0
230
1
0
CIRCLE
5
124
100
AcDbEntity
8
0
100
AcDbCircle
10
-106.53797751380507
20
230.00000000000023
30
3.5527136788005009e-14
40
2.8999999999999919
210
0
220
-0
230
1
0
CIRCLE
5
125
100
AcDbEntity
8
0
100
AcDbCircle
10
123.46202248619494
20
230.00000000000017
30
3.5527136788005009e-14
40
2.8999999999999919
210
0
220
-0
230
1
0
CIRCLE
5
126
100
AcDbEntity
8
0
100
AcDbCircle
10
153.46202248619488
20
110.00000000000011
30
0
40
2.8999999999999919
210
-1.1102230246251565e-16
220
-0
230
1
0
CIRCLE
5
127
100
AcDbEntity
8
0
100
AcDbCircle
10
-106.53797751380507
20
110.00000000000014
30
3.5527136788005009e-14
40
2.8999999999999919
210
0
220
-0
230
1
0
CIRCLE
5
128
100
AcDbEntity
8
0
100
AcDbCircle
10
-76.537977513805089
20
230.00000000000023
30
0
40
2.8999999999999919
210
0
220
-0
230
1
0
CIRCLE
5
129
100
AcDbEntity
8
0
100
AcDbCircle
10
153.46202248619491
20
230.00000000000017
30
3.5527136788005009e-14
40
2.8999999999999919
210
-1.1102230246251565e-16
220
-0
230
1
0
ENDSEC
0
SECTION
2
OBJECTS
0
DICTIONARY
5
C
100
AcDbDictionary
3
ACAD_GROUP
350
D
3
ACAD_MLINESTYLE
350
17
0
DICTIONARY
5
D
100
AcDbDictionary
0
DICTIONARY
5
1A
330
C
100
AcDbDictionary
0
DICTIONARY
5
17
100
AcDbDictionary
0
ENDSEC
0
EOF
