0
SECTION
2
HEADER
9
$INSUNITS
70
4
9
$ACADVER
1
AC1014
9
$HANDSEED
5
FFFF
0
ENDSEC
0
SECTION
2
TABLES
0
TABLE
2
VPORT
5
8
100
AcDbSymbolTable
0
ENDTAB
0
TABLE
2
LTYPE
5
5
100
AcDbSymbolTable
0
LTYPE
5
14
100
AcDbSymbolTableRecord
100
AcDbLinetypeTableRecord
2
BYBLOCK
70
0
0
LTYPE
5
15
100
AcDbSymbolTableRecord
100
AcDbLinetypeTableRecord
2
BYLAYER
70
0
0
ENDTAB
0
TABLE
2
LAYER
5
2
100
AcDbSymbolTable
70
2
0
LAYER
5
50
100
AcDbSymbolTableRecord
100
AcDbLayerTableRecord
2
0
70
0
6
CONTINUOUS
0
ENDTAB
0
TABLE
2
STYLE
5
3
100
AcDbSymbolTable
70
1
0
STYLE
5
11
100
AcDbSymbolTableRecord
100
AcDbTextStyleTableRecord
2
STANDARD
70
0
0
ENDTAB
0
TABLE
2
VIEW
5
6
100
AcDbSymbolTable
70
0
0
ENDTAB
0
TABLE
2
UCS
5
7
100
AcDbSymbolTable
70
0
0
ENDTAB
0
TABLE
2
APPID
5
9
100
AcDbSymbolTable
70
2
0
APPID
5
12
100
AcDbSymbolTableRecord
100
AcDbRegAppTableRecord
2
ACAD
70
0
0
ENDTAB
0
TABLE
2
DIMSTYLE
5
A
100
AcDbSymbolTable
70
1
0
ENDTAB
0
TABLE
2
BLOCK_RECORD
5
1
100
AcDbSymbolTable
70
1
0
BLOCK_RECORD
5
1F
100
AcDbSymbolTableRecord
100
AcDbBlockTableRecord
2
*MODEL_SPACE
0
BLOCK_RECORD
5
1B
100
AcDbSymbolTableRecord
100
AcDbBlockTableRecord
2
*PAPER_SPACE
0
ENDTAB
0
ENDSEC
0
SECTION
2
BLOCKS
0
BLOCK
5
20
100
AcDbEntity
100
AcDbBlockBegin
2
*MODEL_SPACE
0
ENDBLK
5
21
100
AcDbEntity
100
AcDbBlockEnd
0
BLOCK
5
1C
100
AcDbEntity
100
AcDbBlockBegin
2
*PAPER_SPACE
0
ENDBLK
5
1D
100
AcDbEntity
100
AcDbBlockEnd
0
ENDSEC
0
SECTION
2
ENTITIES
0
LINE
5
100
100
AcDbEntity
8
0
100
AcDbLine
10
171.96993613851603
20
207.24999999999994
30
1.7763568394002505e-14
11
171.96993613851606
21
275
31
-1.7763568394002505e-14
0
LINE
5
101
100
AcDbEntity
8
0
100
AcDbLine
10
145.032436138516
20
295
30
8.8817841970012523e-15
11
-2.9675638614840238
21
295
31
8.8817841970012523e-15
0
LINE
5
102
100
AcDbEntity
8
0
100
AcDbLine
10
145.032436138516
20
275
30
8.8817841970012523e-15
11
145.032436138516
21
295
31
8.8817841970012523e-15
0
LINE
5
103
100
AcDbEntity
8
0
100
AcDbLine
10
171.96993613851606
20
275
30
-8.8817841970012523e-15
11
145.032436138516
21
275
31
-8.8817841970012523e-15
0
LINE
5
104
100
AcDbEntity
8
0
100
AcDbLine
10
209.03243613851603
20
295
30
1.7763568394002505e-14
11
209.03243613851603
21
275
31
1.7763568394002505e-14
0
LINE
5
105
100
AcDbEntity
8
0
100
AcDbLine
10
209.03243613851603
20
275
30
1.7763568394002505e-14
11
182.09493613851606
21
275
31
1.9984014443252818e-14
0
LINE
5
106
100
AcDbEntity
8
0
100
AcDbLine
10
182.09493613851606
20
275
30
1.9984014443252818e-14
11
182.09493613851603
21
207.24999999999994
31
0
0
ARC
5
107
100
AcDbEntity
8
0
100
AcDbCircle
10
182.09493613851603
20
202.24999999999997
30
-2.1895288505075267e-46
40
4.9999999999999645
210
8.7581154020302e-47
220
1.2325951644078353e-32
230
1
100
AcDbArc
50
-90.000000000000313
51
90
0
LINE
5
108
100
AcDbEntity
8
0
100
AcDbLine
10
182.094936138516
20
197.25
30
6.1629758220391109e-32
11
171.969936138516
21
197.25
31
0
0
ARC
5
109
100
AcDbEntity
8
0
100
AcDbCircle
10
171.969936138516
20
202.24999999999997
30
1.7763568394002505e-14
40
4.9999999999999645
210
3.7865323450608836e-29
220
-2.690493051503687e-43
230
1
100
AcDbArc
50
89.999999999999673
51
270
0
LINE
5
110
100
AcDbEntity
8
0
100
AcDbLine
10
-2.9675638614840238
20
295
30
8.8817841970012523e-15
11
-122.96756386148402
21
120
31
1.7763568394002505e-14
0
LINE
5
111
100
AcDbEntity
8
0
100
AcDbLine
10
-122.96756386148402
20
120
30
1.7763568394002505e-14
11
-122.96756386148401
21
100
31
8.8817841970012507e-15
0
LINE
5
112
100
AcDbEntity
8
0
100
AcDbLine
10
-122.96756386148401
20
100
30
8.8817841970012507e-15
11
477.03243613851612
21
100
31
-1.7763568394002505e-14
0
LINE
5
113
100
AcDbEntity
8
0
100
AcDbLine
10
477.03243613851612
20
100
30
-1.7763568394002505e-14
11
477.03243613851612
21
120.00000000000011
31
-1.7763568394002505e-14
0
LINE
5
114
100
AcDbEntity
8
0
100
AcDbLine
10
477.03243613851612
20
120.00000000000011
30
-1.7763568394002505e-14
11
357.03243613851618
21
295.00000000000006
31
0
0
LINE
5
115
100
AcDbEntity
8
0
100
AcDbLine
10
357.03243613851618
20
295.00000000000006
30
0
11
209.03243613851603
21
295
31
1.7763568394002505e-14
0
CIRCLE
5
116
100
AcDbEntity
8
0
100
AcDbCircle
10
-112.96756386148402
20
110
30
0
40
3.3000000000000007
210
0
220
-0
230
1
0
CIRCLE
5
117
100
AcDbEntity
8
0
100
AcDbCircle
10
467.03243613851618
20
110.00000000000009
30
1.7763568394002505e-14
40
3.3000000000000007
210
0
220
-0
230
1
0
LWPOLYLINE
5
118
100
AcDbEntity
8
0
100
AcDbPolyline
90
5
70
1
43
0.0
10
364.60786208935292
20
227.10000000000022
10
352.55932609419585
20
227.10000000000022
42
-0.99999999999999989
10
352.55932609419585
20
232.9000000000002
10
364.60786208935292
20
232.90000000000018
42
-0.41421356237309148
10
367.50786208935278
20
230.00000000000023
42
-0.41421356237309859
0
LWPOLYLINE
5
119
100
AcDbEntity
8
0
100
AcDbPolyline
90
4
70
1
43
0.0
10
-10.542989812320586
20
112.90000000000019
10
1.505546182836484
20
112.9000000000002
42
-0.99999999999999989
10
1.5055461828363825
20
107.10000000000022
10
-10.542989812320586
20
107.10000000000021
42
-0.99999999999999989
0
LWPOLYLINE
5
120
100
AcDbEntity
8
0
100
AcDbPolyline
90
4
70
1
43
0.0
10
-10.542989812320659
20
232.9000000000002
10
1.505546182836377
20
232.9000000000002
42
-0.99999999999999989
10
1.5055461828363592
20
227.10000000000022
10
-10.542989812320727
20
227.10000000000031
42
-0.99999999999999989
0
LWPOLYLINE
5
121
100
AcDbEntity
8
0
100
AcDbPolyline
90
5
70
1
43
0.0
10
364.60786208935275
20
107.10000000000024
10
352.55932609419574
20
107.10000000000028
42
-0.99999999999999989
10
352.55932609419574
20
112.90000000000019
10
364.60786208935281
20
112.90000000000015
42
-0.41421356237308965
10
367.50786208935273
20
110.00000000000021
42
-0.4142135623730932
0
CIRCLE
5
122
100
AcDbEntity
8
0
100
AcDbCircle
10
307.03243613851612
20
230.00000000000023
30
3.5527136788005009e-14
40
2.8999999999999919
210
5.5511151231257827e-17
220
0
230
1
0
CIRCLE
5
123
100
AcDbEntity
8
0
100
AcDbCircle
10
47.03243613851609
20
110.0000000000002
30
0
40
2.8999999999999915
210
5.5511151231257827e-17
220
0
230
1
0
CIRCLE
5
124
100
AcDbEntity
8
0
100
AcDbCircle
10
47.03243613851609
20
230.00000000000023
30
2.2204460492503131e-15
40
2.8999999999999915
210
5.5511151231257827e-17
220
0
230
1
0
CIRCLE
5
125
100
AcDbEntity
8
0
100
AcDbCircle
10
277.03243613851612
20
110.0000000000002
30
1.7763568394002505e-14
40
2.8999999999999919
210
5.5511151231257827e-17
220
0
230
1
0
CIRCLE
5
126
100
AcDbEntity
8
0
100
AcDbCircle
10
277.03243613851612
20
230.00000000000023
30
1.7763568394002505e-14
40
2.8999999999999919
210
5.5511151231257827e-17
220
0
230
1
0
CIRCLE
5
127
100
AcDbEntity
8
0
100
AcDbCircle
10
77.03243613851609
20
110.0000000000002
30
0
40
2.8999999999999915
210
5.5511151231257827e-17
220
0
230
1
0
CIRCLE
5
128
100
AcDbEntity
8
0
100
AcDbCircle
10
77.03243613851609
20
230.00000000000023
30
-8.8817841970012523e-15
40
2.8999999999999915
210
5.5511151231257827e-17
220
0
230
1
0
CIRCLE
5
129
100
AcDbEntity
8
0
100
AcDbCircle
10
307.03243613851606
20
110.0000000000002
30
0
40
2.8999999999999919
210
5.5511151231257827e-17
220
0
230
1
0
ENDSEC
0
SECTION
2
OBJECTS
0
DICTIONARY
5
C
100
AcDbDictionary
3
ACAD_GROUP
350
D
3
ACAD_MLINESTYLE
350
17
0
DICTIONARY
5
D
100
AcDbDictionary
0
DICTIONARY
5
1A
330
C
100
AcDbDictionary
0
DICTIONARY
5
17
100
AcDbDictionary
0
ENDSEC
0
EOF
